<svg width="14" height="15" viewBox="0 0 14 15" fill="none" xmlns="http://www.w3.org/2000/svg">
<path fill-rule="evenodd" clip-rule="evenodd" d="M10.0141 9.51861L13.793 13.4958C13.9255 13.6343 14 13.8229 14 14.0197C14 14.2164 13.9255 14.405 13.793 14.5436C13.6616 14.6832 13.4827 14.7618 13.2961 14.7618C13.1096 14.7618 12.9307 14.6832 12.7993 14.5436L9.02738 10.559C8.04938 11.3685 6.84167 11.8077 5.59838 11.806C2.50648 11.806 0 9.16316 0 5.90302C0 2.64287 2.50648 0 5.59838 0C8.69028 0 11.1968 2.64287 11.1968 5.90302C11.1983 7.21397 10.7818 8.4874 10.0141 9.51861ZM5.59839 1.47575C3.27947 1.47575 1.39962 3.4579 1.39962 5.90299C1.39962 8.34809 3.27947 10.3302 5.59839 10.3302C7.91731 10.3302 9.79716 8.34809 9.79716 5.90299C9.79716 3.4579 7.91731 1.47575 5.59839 1.47575Z" fill="white"/>
</svg>
