<svg width="13" height="13" viewBox="0 0 13 13" fill="none" xmlns="http://www.w3.org/2000/svg">
<path d="M11.9828 2.87756L11.1311 2.03188L11.9828 1.18621C12.0957 1.07327 12.1592 0.920088 12.1592 0.760368C12.1592 0.600648 12.0957 0.447469 11.9828 0.33453C11.8699 0.221591 11.7167 0.158142 11.557 0.158142C11.3972 0.158142 11.2441 0.221591 11.1311 0.33453L4.80952 6.65613C4.18938 6.24698 3.43944 6.0826 2.70502 6.19484C1.9706 6.30707 1.30398 6.68792 0.834343 7.2636C0.364702 7.83929 0.125474 8.5688 0.163013 9.3108C0.200552 10.0528 0.512185 10.7545 1.03753 11.2798C1.56287 11.8051 2.26452 12.1168 3.00652 12.1543C3.74852 12.1918 4.47804 11.9526 5.05372 11.483C5.6294 11.0133 6.01025 10.3467 6.12249 9.6123C6.23472 8.87788 6.07034 8.12794 5.6612 7.5078L8.58808 4.57492L9.43376 5.42659C9.4898 5.48218 9.55627 5.52616 9.62934 5.55601C9.70242 5.58585 9.78067 5.60098 9.8596 5.60053C9.93853 5.60098 10.0168 5.58585 10.0899 5.55601C10.1629 5.52616 10.2294 5.48218 10.2854 5.42659C10.3417 5.37084 10.3863 5.3045 10.4167 5.23141C10.4472 5.15833 10.4628 5.07993 10.4628 5.00076C10.4628 4.92158 10.4472 4.84319 10.4167 4.7701C10.3863 4.69701 10.3417 4.63067 10.2854 4.57492L9.43376 3.75923L10.2854 2.90755L11.1311 3.75923C11.1872 3.81482 11.2536 3.85879 11.3267 3.88864C11.3998 3.91849 11.478 3.93362 11.557 3.93316C11.6359 3.93362 11.7141 3.91849 11.7872 3.88864C11.8603 3.85879 11.9267 3.81482 11.9828 3.75923C12.0437 3.70306 12.0923 3.6349 12.1255 3.55903C12.1587 3.48316 12.1759 3.40122 12.1759 3.3184C12.1759 3.23557 12.1587 3.15363 12.1255 3.07776C12.0923 3.00189 12.0437 2.93373 11.9828 2.87756V2.87756ZM3.16015 10.9565C2.80428 10.9565 2.4564 10.851 2.1605 10.6533C1.8646 10.4555 1.63398 10.1745 1.4978 9.84574C1.36161 9.51696 1.32598 9.15518 1.3954 8.80615C1.46483 8.45711 1.6362 8.1365 1.88784 7.88487C2.13948 7.63323 2.46008 7.46186 2.80912 7.39243C3.15815 7.32301 3.51993 7.35864 3.84872 7.49482C4.1775 7.63101 4.45851 7.86163 4.65622 8.15753C4.85393 8.45342 4.95946 8.8013 4.95946 9.15717C4.95946 9.63438 4.76989 10.092 4.43246 10.4295C4.09502 10.7669 3.63736 10.9565 3.16015 10.9565Z" fill="white"/>
</svg>
